<?xml version="1.0" encoding="UTF-8"?>
<svg xmlns="http://www.w3.org/2000/svg" xmlns:xlink="http://www.w3.org/1999/xlink" width="32pt" height="32pt" viewBox="0 0 32 32" version="1.1">
<g id="surface9525675">
<path style=" stroke:none;fill-rule:nonzero;fill:rgb(100%,100%,100%);fill-opacity:1;" d="M 5 5 L 5 27 L 27 27 L 27 5 Z M 7 7 L 25 7 L 25 25 L 7 25 Z M 11 10 L 11 21.992188 C 16.929688 21.992188 18.117188 22.070312 19.226562 21.742188 C 19.875 21.539062 21.65625 20.902344 21.65625 18.652344 C 21.65625 17.652344 21.355469 15.960938 19.394531 15.539062 L 19.394531 15.507812 L 19.027344 15.507812 C 20.027344 15.058594 20.65625 14.210938 20.65625 12.960938 C 20.65625 12.640625 20.746094 10 17.246094 10 Z M 13 12 L 17 12 C 18.507812 12 18.65625 12.851562 18.65625 13.492188 C 18.65625 15.042969 17.03125 15 17 15 L 13 15 Z M 13 17 L 17.757812 17 C 19.621094 17 19.65625 18.175781 19.65625 18.480469 C 19.65625 20.039062 18.042969 20 17.847656 20 L 13 20 Z M 13 17 "/>
</g>
</svg>
