<?xml version="1.0" encoding="UTF-8"?>
<svg xmlns="http://www.w3.org/2000/svg" xmlns:xlink="http://www.w3.org/1999/xlink" width="64pt" height="64pt" viewBox="0 0 64 64" version="1.1">
<g id="surface9526298">
<path style=" stroke:none;fill-rule:nonzero;fill:rgb(100%,100%,100%);fill-opacity:1;" d="M 32 3 C 21.757812 3 18 8.039062 18 11.765625 L 18 18 L 31 18 L 31 20 L 11.765625 20 C 9.550781 20 7.277344 20.839844 5.632812 22.804688 C 3.992188 24.769531 3 27.769531 3 32 C 3 36.230469 3.992188 39.230469 5.632812 41.195312 C 7.277344 43.160156 9.550781 44 11.765625 44 L 18 44 L 18 52.234375 C 18 55.960938 21.757812 61 32 61 C 42.242188 61 46 55.960938 46 52.234375 L 46 46 L 33 46 L 33 44 L 52.234375 44 C 54.449219 44 56.722656 43.160156 58.363281 41.195312 C 60.007812 39.230469 61 36.230469 61 32 C 61 27.769531 60.007812 24.769531 58.363281 22.804688 C 56.722656 20.839844 54.449219 20 52.234375 20 L 46.003906 20 L 46.003906 11.765625 C 46 9.851562 45.066406 7.613281 42.832031 5.894531 C 40.597656 4.179688 37.117188 3 32 3 Z M 32 5 C 36.808594 5 39.828125 6.109375 41.613281 7.484375 C 43.398438 8.855469 44 10.496094 44.003906 11.765625 L 44.003906 20 L 44 20 L 44 26.910156 C 44 27.730469 43.703125 28.511719 43.214844 29.167969 C 42.5625 30.039062 41.566406 30.6875 40.46875 30.914062 C 40.199219 30.96875 39.917969 31 39.636719 31 L 24.363281 31 C 21.019531 31 18 33.679688 18 37.089844 L 18 42 L 11.765625 42 C 10.03125 42 8.421875 41.410156 7.171875 39.910156 C 5.917969 38.414062 5 35.917969 5 32 C 5 28.082031 5.917969 25.585938 7.171875 24.089844 C 8.421875 22.589844 10.03125 22 11.765625 22 L 33 22 L 33 16 L 20 16 L 20 11.765625 C 20 9.378906 22.390625 5 32 5 Z M 26.5 9 C 25.121094 9 24 10.121094 24 11.5 C 24 12.878906 25.121094 14 26.5 14 C 27.878906 14 29 12.878906 29 11.5 C 29 10.121094 27.878906 9 26.5 9 Z M 46.003906 22 L 52.234375 22 C 53.96875 22 55.578125 22.589844 56.828125 24.089844 C 58.082031 25.585938 59 28.082031 59 32 C 59 35.917969 58.082031 38.414062 56.828125 39.910156 C 55.578125 41.410156 53.96875 42 52.234375 42 L 31 42 L 31 48 L 44 48 L 44 52.234375 C 44 54.621094 41.609375 59 32 59 C 22.390625 59 20 54.621094 20 52.234375 L 20 37.089844 C 20 36.816406 20.035156 36.546875 20.09375 36.285156 C 20.53125 34.457031 22.390625 33 24.363281 33 L 39.636719 33 C 39.847656 33 40.054688 32.988281 40.257812 32.96875 C 41.496094 32.847656 42.660156 32.363281 43.613281 31.621094 C 43.773438 31.5 43.925781 31.371094 44.070312 31.230469 L 44.074219 31.230469 C 45.246094 30.136719 46.003906 28.613281 46.003906 26.90625 Z M 15.636719 24.066406 C 15.085938 24.078125 14.644531 24.53125 14.652344 25.082031 L 14.652344 27.082031 C 14.648438 27.441406 14.835938 27.777344 15.148438 27.960938 C 15.460938 28.140625 15.84375 28.140625 16.15625 27.960938 C 16.46875 27.777344 16.65625 27.441406 16.652344 27.082031 L 16.652344 25.082031 C 16.65625 24.8125 16.550781 24.550781 16.359375 24.359375 C 16.167969 24.167969 15.90625 24.0625 15.636719 24.066406 Z M 20.203125 24.066406 C 19.648438 24.078125 19.210938 24.53125 19.214844 25.082031 L 19.214844 27.082031 C 19.210938 27.441406 19.402344 27.777344 19.710938 27.960938 C 20.023438 28.140625 20.410156 28.140625 20.722656 27.960938 C 21.03125 27.777344 21.222656 27.441406 21.214844 27.082031 L 21.214844 25.082031 C 21.21875 24.8125 21.113281 24.550781 20.921875 24.359375 C 20.730469 24.167969 20.472656 24.0625 20.203125 24.066406 Z M 24.769531 24.066406 C 24.214844 24.078125 23.777344 24.53125 23.785156 25.082031 L 23.785156 27.082031 C 23.777344 27.441406 23.96875 27.777344 24.277344 27.960938 C 24.589844 28.140625 24.976562 28.140625 25.289062 27.960938 C 25.597656 27.777344 25.789062 27.441406 25.785156 27.082031 L 25.785156 25.082031 C 25.785156 24.8125 25.679688 24.550781 25.488281 24.359375 C 25.296875 24.167969 25.039062 24.0625 24.769531 24.066406 Z M 29.332031 24.066406 C 28.78125 24.078125 28.339844 24.53125 28.347656 25.082031 L 28.347656 27.082031 C 28.34375 27.441406 28.53125 27.777344 28.84375 27.960938 C 29.15625 28.140625 29.539062 28.140625 29.851562 27.960938 C 30.164062 27.777344 30.351562 27.441406 30.347656 27.082031 L 30.347656 25.082031 C 30.351562 24.8125 30.246094 24.550781 30.054688 24.359375 C 29.863281 24.167969 29.601562 24.0625 29.332031 24.066406 Z M 37.636719 35.988281 C 37.085938 35.996094 36.644531 36.449219 36.652344 37 L 36.652344 39 C 36.648438 39.359375 36.835938 39.695312 37.148438 39.878906 C 37.460938 40.058594 37.84375 40.058594 38.15625 39.878906 C 38.46875 39.695312 38.65625 39.359375 38.652344 39 L 38.652344 37 C 38.65625 36.730469 38.550781 36.46875 38.359375 36.277344 C 38.167969 36.085938 37.90625 35.980469 37.636719 35.988281 Z M 42.203125 35.988281 C 41.648438 35.996094 41.210938 36.449219 41.214844 37 L 41.214844 39 C 41.210938 39.359375 41.402344 39.695312 41.710938 39.878906 C 42.023438 40.058594 42.410156 40.058594 42.722656 39.878906 C 43.03125 39.695312 43.222656 39.359375 43.214844 39 L 43.214844 37 C 43.21875 36.730469 43.113281 36.46875 42.921875 36.277344 C 42.730469 36.085938 42.472656 35.980469 42.203125 35.988281 Z M 46.769531 35.988281 C 46.214844 35.996094 45.777344 36.449219 45.785156 37 L 45.785156 39 C 45.777344 39.359375 45.96875 39.695312 46.277344 39.878906 C 46.589844 40.058594 46.976562 40.058594 47.289062 39.878906 C 47.597656 39.695312 47.789062 39.359375 47.785156 39 L 47.785156 37 C 47.785156 36.730469 47.679688 36.46875 47.488281 36.277344 C 47.296875 36.085938 47.039062 35.980469 46.769531 35.988281 Z M 51.332031 35.988281 C 50.78125 35.996094 50.339844 36.449219 50.347656 37 L 50.347656 39 C 50.34375 39.359375 50.53125 39.695312 50.84375 39.878906 C 51.15625 40.058594 51.539062 40.058594 51.851562 39.878906 C 52.164062 39.695312 52.351562 39.359375 52.347656 39 L 52.347656 37 C 52.351562 36.730469 52.246094 36.46875 52.054688 36.277344 C 51.863281 36.085938 51.601562 35.980469 51.332031 35.988281 Z M 38.5 50 C 37.121094 50 36 51.121094 36 52.5 C 36 53.878906 37.121094 55 38.5 55 C 39.878906 55 41 53.878906 41 52.5 C 41 51.121094 39.878906 50 38.5 50 Z M 38.5 50 "/>
</g>
</svg>
