<?xml version="1.0" encoding="UTF-8"?>
<svg xmlns="http://www.w3.org/2000/svg" xmlns:xlink="http://www.w3.org/1999/xlink" width="30pt" height="30pt" viewBox="0 0 30 30" version="1.1">
<g id="surface9526639">
<path style=" stroke:none;fill-rule:nonzero;fill:rgb(100%,100%,100%);fill-opacity:1;" d="M 10.679688 4.183594 C 10.070312 4.183594 9.503906 4.320312 9 4.609375 C 7.429688 5.511719 6.832031 7.71875 7.148438 10.46875 C 4.613281 11.570312 3 13.1875 3 15 C 3 16.8125 4.613281 18.429688 7.148438 19.53125 C 6.835938 22.28125 7.429688 24.488281 9 25.394531 C 9.5 25.679688 10.066406 25.820312 10.679688 25.820312 C 11.980469 25.820312 13.488281 25.164062 15 24.042969 C 16.511719 25.164062 18.019531 25.820312 19.324219 25.820312 C 19.933594 25.820312 20.5 25.679688 21.003906 25.394531 C 22.570312 24.488281 23.167969 22.28125 22.851562 19.53125 C 25.386719 18.429688 27 16.8125 27 15 C 27 13.1875 25.386719 11.570312 22.847656 10.46875 C 23.164062 7.71875 22.570312 5.511719 21 4.609375 C 20.5 4.316406 19.933594 4.183594 19.320312 4.183594 C 18.019531 4.183594 16.511719 4.835938 15 5.957031 C 13.488281 4.835938 11.980469 4.183594 10.679688 4.183594 Z M 10.679688 5.929688 C 11.460938 5.929688 12.496094 6.347656 13.617188 7.117188 C 12.957031 7.738281 12.3125 8.449219 11.6875 9.238281 C 10.679688 9.382812 9.730469 9.589844 8.847656 9.855469 C 8.84375 9.792969 8.832031 9.730469 8.828125 9.671875 C 8.722656 7.890625 9.113281 6.5625 9.875 6.125 C 10.101562 5.992188 10.363281 5.929688 10.679688 5.929688 Z M 19.320312 5.929688 C 19.636719 5.929688 19.898438 5.992188 20.125 6.125 C 20.886719 6.5625 21.277344 7.890625 21.171875 9.671875 C 21.167969 9.730469 21.15625 9.792969 21.152344 9.855469 C 20.269531 9.589844 19.316406 9.382812 18.308594 9.238281 C 17.6875 8.449219 17.042969 7.738281 16.382812 7.117188 C 17.503906 6.347656 18.539062 5.929688 19.320312 5.929688 Z M 15 8.226562 C 15.269531 8.476562 15.539062 8.734375 15.8125 9.019531 C 15.542969 9.011719 15.273438 9 15 9 C 14.726562 9 14.457031 9.011719 14.1875 9.019531 C 14.460938 8.738281 14.730469 8.476562 15 8.226562 Z M 15 10.75 C 15.828125 10.75 16.613281 10.796875 17.359375 10.875 C 17.8125 11.496094 18.261719 12.148438 18.679688 12.875 C 19.085938 13.570312 19.441406 14.285156 19.753906 15 C 19.441406 15.714844 19.085938 16.429688 18.679688 17.125 C 18.261719 17.851562 17.816406 18.5 17.363281 19.117188 C 16.589844 19.203125 15.800781 19.25 15 19.25 C 14.171875 19.25 13.386719 19.203125 12.640625 19.121094 C 12.1875 18.503906 11.738281 17.855469 11.316406 17.125 C 10.914062 16.429688 10.558594 15.714844 10.246094 15 C 10.558594 14.285156 10.914062 13.570312 11.316406 12.875 C 11.738281 12.148438 12.183594 11.5 12.636719 10.882812 C 13.410156 10.796875 14.199219 10.75 15 10.75 Z M 19.746094 11.292969 C 20.144531 11.386719 20.523438 11.488281 20.882812 11.605469 C 20.800781 11.972656 20.703125 12.347656 20.589844 12.722656 C 20.460938 12.484375 20.335938 12.242188 20.199219 12 C 20.054688 11.753906 19.894531 11.53125 19.746094 11.292969 Z M 10.25 11.292969 C 10.101562 11.53125 9.945312 11.753906 9.800781 12 C 9.664062 12.242188 9.539062 12.484375 9.410156 12.722656 C 9.296875 12.347656 9.195312 11.972656 9.117188 11.601562 C 9.480469 11.488281 9.859375 11.386719 10.253906 11.292969 Z M 7.46875 12.246094 C 7.679688 13.136719 7.972656 14.058594 8.347656 14.996094 C 7.972656 15.9375 7.679688 16.855469 7.46875 17.742188 C 5.730469 16.902344 4.75 15.855469 4.75 15 C 4.75 14.121094 5.703125 13.121094 7.296875 12.320312 C 7.351562 12.296875 7.414062 12.273438 7.46875 12.246094 Z M 22.53125 12.253906 C 24.269531 13.097656 25.25 14.144531 25.25 15 C 25.25 15.878906 24.296875 16.878906 22.703125 17.675781 C 22.648438 17.703125 22.585938 17.726562 22.53125 17.753906 C 22.320312 16.863281 22.03125 15.941406 21.65625 15 C 22.027344 14.0625 22.320312 13.144531 22.53125 12.253906 Z M 15 13 C 13.894531 13 13 13.894531 13 15 C 13 16.105469 13.894531 17 15 17 C 16.105469 17 17 16.105469 17 15 C 17 13.894531 16.105469 13 15 13 Z M 9.410156 17.277344 C 9.539062 17.515625 9.664062 17.757812 9.804688 18 C 9.949219 18.246094 10.105469 18.46875 10.253906 18.707031 C 9.855469 18.613281 9.476562 18.511719 9.117188 18.394531 C 9.199219 18.027344 9.296875 17.652344 9.410156 17.277344 Z M 20.589844 17.277344 C 20.703125 17.65625 20.804688 18.027344 20.886719 18.394531 C 20.519531 18.511719 20.140625 18.613281 19.75 18.707031 C 19.898438 18.46875 20.054688 18.246094 20.199219 18 C 20.335938 17.757812 20.460938 17.519531 20.589844 17.277344 Z M 8.847656 20.144531 C 9.730469 20.410156 10.683594 20.617188 11.691406 20.761719 C 12.3125 21.550781 12.957031 22.261719 13.617188 22.886719 C 12.496094 23.65625 11.460938 24.070312 10.679688 24.070312 C 10.363281 24.070312 10.101562 24.007812 9.875 23.875 C 9.113281 23.4375 8.722656 22.113281 8.828125 20.332031 C 8.832031 20.269531 8.84375 20.207031 8.847656 20.144531 Z M 21.152344 20.144531 C 21.15625 20.207031 21.167969 20.269531 21.171875 20.332031 C 21.277344 22.113281 20.886719 23.4375 20.125 23.875 C 19.898438 24.007812 19.636719 24.070312 19.320312 24.070312 C 18.539062 24.070312 17.503906 23.65625 16.382812 22.886719 C 17.042969 22.261719 17.6875 21.550781 18.3125 20.761719 C 19.320312 20.617188 20.269531 20.410156 21.152344 20.144531 Z M 14.1875 20.980469 C 14.457031 20.988281 14.726562 21 15 21 C 15.273438 21 15.542969 20.988281 15.8125 20.980469 C 15.539062 21.265625 15.269531 21.523438 15 21.773438 C 14.730469 21.523438 14.460938 21.265625 14.1875 20.980469 Z M 14.1875 20.980469 "/>
</g>
</svg>
